<svg width="72" height="73" viewBox="0 0 72 73" fill="none" xmlns="http://www.w3.org/2000/svg">
<path d="M70.043 28.8401C69.2275 28.0187 68.0232 27.8221 67.0215 28.2503L64.9655 26.1788L65.0106 26.1335C65.3599 25.7815 65.5522 25.3134 65.5522 24.8158C65.5522 24.318 65.3598 23.8499 65.0104 23.4981L54.2533 12.6592C53.8425 12.2454 53.1765 12.2454 52.7658 12.6592C52.355 13.0732 52.355 13.7442 52.7658 14.1581L63.3432 24.8157C62.0892 26.0792 61.3335 26.8408 48.7603 39.5091C45.9911 36.719 49.8555 40.6127 32.5864 23.2129C36.177 19.5952 43.6265 12.089 47.1693 8.5193L49.2152 10.581C49.626 10.9948 50.2921 10.9948 50.7028 10.581C51.1136 10.1669 51.1136 9.49594 50.7028 9.08216L48.4769 6.83932C47.7558 6.11281 46.5825 6.11267 45.8613 6.83932L45.8163 6.88468L43.7616 4.81439C44.1807 3.82376 44.0061 2.60645 43.1749 1.76887L42.2248 0.811725C41.7057 0.288287 41.0153 0 40.2808 0C39.5462 0 38.8558 0.288287 38.3365 0.811443L24.9365 14.313C24.4171 14.8363 24.1311 15.532 24.1311 16.272C24.1311 17.0119 24.4173 17.7076 24.9365 18.2309L25.8866 19.188C26.4059 19.7113 27.0964 19.9996 27.8309 19.9996C28.2076 19.9996 28.5729 19.9237 28.9093 19.7792L30.9642 21.8496L30.9193 21.8948C30.5699 22.2467 30.3775 22.7147 30.3775 23.2126C30.3775 23.7102 30.5699 24.1782 30.9193 24.5304L36.4489 30.1018L33.431 33.1425L33.3178 33.0285C32.947 32.6547 32.4538 32.4488 31.9293 32.4488C31.4047 32.4488 30.9116 32.6547 30.5409 33.0283L28.7161 34.8672C28.0609 35.5273 27.9759 36.5182 28.4062 37.2609L26.3538 39.1269C25.9225 39.5189 25.8882 40.1893 26.2775 40.6239C26.6668 41.0584 27.3317 41.0929 27.7632 40.7007L29.8479 38.8054L33.2851 42.2686L9.52181 68.8052C7.90439 70.6116 5.09369 70.7196 3.35229 68.9647C1.63389 67.2334 1.69364 64.4003 3.51064 62.7486L24.0811 44.048C24.5124 43.656 24.5466 42.9855 24.1574 42.551C23.7683 42.1167 23.1031 42.0821 22.6717 42.4741L2.10136 61.1747C-0.593629 63.6249 -0.722102 67.8572 1.86475 70.4635C4.43295 73.0516 8.634 72.961 11.0838 70.2251L34.818 43.7207C35.5727 44.1624 36.5531 44.054 37.1932 43.4092L39.0182 41.5704C39.389 41.1966 39.5934 40.6999 39.5934 40.1715C39.5934 39.6431 39.389 39.1462 39.0182 38.7726L38.9049 38.6584L41.9227 35.6177L47.4524 41.1893C48.1736 41.9158 49.3468 41.9158 50.068 41.1893L50.113 41.1439L52.1689 43.2153C51.7439 44.2245 51.939 45.438 52.7543 46.2596L53.7044 47.217C54.7766 48.2971 56.5207 48.2971 57.5928 47.217L70.993 33.7153C72.0649 32.6351 72.0649 30.8776 70.993 29.7973L70.043 28.8401ZM27.3742 17.6895L26.424 16.7321C26.1717 16.478 26.1716 16.0663 26.424 15.8121L39.8242 2.31039C40.0768 2.05602 40.4848 2.05602 40.7374 2.31053L41.6875 3.26782C41.9398 3.5219 41.94 3.93356 41.6875 4.18779C41.5722 4.30395 28.3015 17.6754 28.2874 17.6895C28.0347 17.9439 27.6267 17.9436 27.3742 17.6895ZM30.5364 18.4212L42.4136 6.45395L44.3288 8.38364L32.4516 20.3509L30.5364 18.4212ZM35.8049 41.8104C35.7803 41.7855 30.3166 36.2805 30.3025 36.2663L31.929 34.6275C32.6258 35.3295 36.6271 39.361 37.4315 40.1715L35.8049 41.8104ZM37.4172 37.1595L34.9183 34.6418L37.9361 31.601L40.435 34.1189L37.4172 37.1595ZM63.4779 27.6777L65.393 29.6073L53.5157 41.5746L51.6006 39.645L63.4779 27.6777ZM69.5056 32.2166L56.1054 45.7182C55.8538 45.972 55.4439 45.972 55.1922 45.7182L54.2421 44.7611C53.9903 44.5072 53.9903 44.0945 54.2421 43.8408L54.257 43.8258C77.6085 20.2974 54.741 43.3383 67.6422 30.3392C67.8941 30.0856 68.3037 30.0857 68.5554 30.3392L69.5054 31.2964C69.7573 31.5502 69.7573 31.963 69.5056 32.2166Z" fill="#B68C5A"/>
<path d="M34.8597 65.4021V65.8246H34.6563C32.6172 65.8246 30.9582 67.4961 30.9582 69.5506V70.9235C30.9582 71.7056 31.5898 72.342 32.3661 72.342H70.3901C71.1664 72.342 71.798 71.7056 71.798 70.9235V69.5506C71.798 67.4961 70.139 65.8246 68.0999 65.8246H67.8966V65.4021C67.8966 62.7283 66.4704 60.384 64.3443 59.1007C64.7718 58.5827 65.0291 57.9172 65.0291 57.1924C65.0291 55.5439 63.6981 54.2028 62.0619 54.2028H40.6944C39.0582 54.2028 37.7272 55.5439 37.7272 57.1924C37.7272 57.9172 37.9846 58.5825 38.4121 59.1007C36.2858 60.3839 34.8597 62.7283 34.8597 65.4021ZM65.7928 65.4021V65.8246H64.1559C63.575 65.8246 63.104 66.299 63.104 66.8845C63.104 67.4699 63.575 67.9444 64.1559 67.9444H68.0999C68.979 67.9444 69.6941 68.6649 69.6941 69.5506V70.2222H33.062V69.5506C33.062 68.6648 33.7772 67.9444 34.6563 67.9444H59.2471C59.8281 67.9444 60.299 67.4699 60.299 66.8845C60.299 66.299 59.8281 65.8246 59.2471 65.8246H36.9635V65.4021C36.9635 62.5237 39.2875 60.1821 42.1442 60.1821H60.6121C63.4688 60.1819 65.7928 62.5237 65.7928 65.4021ZM40.6944 58.0622C40.2182 58.0622 39.831 57.6719 39.831 57.1924C39.831 56.7129 40.2182 56.3226 40.6944 56.3226H62.062C62.5382 56.3226 62.9255 56.7129 62.9255 57.1924C62.9255 57.6719 62.5382 58.0622 62.062 58.0622H40.6944Z" fill="#B68C5A"/>
</svg>
