<svg width="74" height="73" viewBox="0 0 74 73" fill="none" xmlns="http://www.w3.org/2000/svg">
<path d="M6.38671e-07 1.21738V7.3353C0.00244496 8.01025 0.551987 8.55526 1.22693 8.55268H2.44431V63.5496H1.22693C0.551987 63.5472 0.0027016 64.0921 6.38671e-07 64.767V70.8849C0.00244496 71.5599 0.551975 72.1049 1.22693 72.1023H72.1095C72.7817 72.1011 73.3266 71.5571 73.3293 70.8849V64.767C73.3268 64.0948 72.7817 63.551 72.1095 63.5496H70.8826V8.55268H72.1095C72.7817 8.55143 73.3266 8.00743 73.3293 7.3353V1.21738C73.3268 0.545246 72.7817 0.00138575 72.1095 0H1.16368C0.454972 0.00923834 -0.000622626 0.589082 6.38671e-07 1.21738ZM2.44431 2.44435H70.8826V6.10833H15.8952C14.2291 6.07138 14.2291 8.58963 15.8952 8.55268H19.5593V45.5778C18.4603 45.9145 17.484 46.4787 16.7068 47.2558C15.3905 48.5722 14.6682 50.4478 14.6682 52.5526V57.3243C14.6323 58.9894 17.1485 58.9894 17.1125 57.3243V52.5526C17.1126 50.9909 17.6077 49.8113 18.4302 48.9889C18.7466 48.6725 19.1341 48.4221 19.5593 48.2106V63.5496H17.1125V62.2869C17.1485 60.6218 14.6323 60.6218 14.6682 62.2869V63.5496H4.88862V8.55268H10.997C12.6631 8.58963 12.6631 6.07133 10.997 6.10833H2.44431V2.44435ZM22.0036 8.55268H35.4449V20.8601C30.6242 21.4611 26.8826 25.5647 26.8826 30.5467V34.2203C26.8826 37.8329 28.855 40.9842 31.7736 42.6775V45.2173H22.0036V8.55268ZM37.8916 8.55268H51.3329V45.2173H41.5533V42.6775C44.4719 40.9842 46.4419 37.8329 46.4419 34.2203V30.5467C46.4419 25.5681 42.7074 21.4678 37.8916 20.8625V8.55268ZM53.7772 8.55268H68.4383V63.5496H65.994C64.3279 63.5127 64.3279 66.031 65.994 65.994H70.8826V69.6581H2.44431V65.994H61.103C62.7691 66.0309 62.7691 63.5126 61.103 63.5496H58.6682V52.5526C58.6682 50.4478 57.946 48.5722 56.6297 47.2558C55.8525 46.4787 54.8761 45.9145 53.7772 45.5778V8.55268ZM35.4449 23.3283V41.4482C31.9529 40.8752 29.3293 37.8874 29.3293 34.2203V30.5467C29.3293 26.8797 31.9529 23.8998 35.4449 23.3283ZM37.8916 23.3308C41.3788 23.9062 43.9976 26.883 43.9976 30.5467V34.2203C43.9976 37.884 41.3788 40.869 37.8916 41.4459V23.3308ZM34.2179 43.6777C34.6181 43.7812 35.0267 43.8643 35.4449 43.9165V48.631L34.2179 46.1508V43.6777ZM39.1089 43.6777V46.1674L37.8916 48.564V43.9141C38.3063 43.8619 38.7119 43.7807 39.1089 43.6777ZM22.0036 47.6617H32.2343L35.4449 54.1472V63.5496H22.0036V47.6617ZM41.0926 47.6617H51.3329V63.5496H37.8916V53.9634L41.0926 47.6617ZM53.7772 48.213C54.1979 48.4241 54.5819 48.6741 54.8967 48.9889C55.7192 49.8113 56.2239 50.991 56.2239 52.5526V63.5496H53.7772V48.213Z" fill="#B68C5A"/>
</svg>
