<svg width="63" height="73" viewBox="0 0 63 73" fill="none" xmlns="http://www.w3.org/2000/svg">
<path d="M33.5271 19.7521C33.5273 17.0299 32.7203 14.3688 31.208 12.1053C29.6957 9.84181 27.5462 8.07764 25.0312 7.0359C22.5162 5.99417 19.7488 5.72166 17.079 6.25285C14.4091 6.78403 11.9567 8.09506 10.032 10.0201C8.10731 11.9451 6.79671 14.3977 6.26598 17.0677C5.73525 19.7376 6.00824 22.505 7.05041 25.0198C8.09257 27.5346 9.85711 29.6838 12.1209 31.1957C14.3846 32.7076 17.0459 33.5142 19.768 33.5135C23.416 33.5085 26.9132 32.0569 29.4925 29.4772C32.0718 26.8974 33.5227 23.4001 33.5271 19.7521ZM8.36944 19.7521C8.3692 17.4983 9.03731 15.2951 10.2893 13.421C11.5412 11.5469 13.3208 10.0862 15.403 9.22358C17.4851 8.36093 19.7763 8.1351 21.9868 8.57465C24.1973 9.0142 26.2278 10.0994 27.8216 11.693C29.4153 13.2865 30.5007 15.3169 30.9405 17.5274C31.3803 19.7378 31.1547 22.0291 30.2922 24.1113C29.4298 26.1936 27.9693 27.9733 26.0954 29.2254C24.2214 30.4776 22.0183 31.1459 19.7645 31.1459C16.7442 31.1416 13.8489 29.9397 11.7135 27.8038C9.57805 25.6679 8.37675 22.7724 8.37299 19.7521H8.36944Z" fill="#B68C5A"/>
<path d="M14.7121 49.6175C11.6956 49.6175 8.80266 50.8158 6.66968 52.9488C4.53669 55.0818 3.33838 57.9748 3.33838 60.9913C3.33838 64.0078 4.53669 66.9007 6.66968 69.0337C8.80266 71.1667 11.6956 72.365 14.7121 72.365H18.0527C21.2617 72.3577 24.4026 71.4391 27.1098 69.7163C29.817 67.9934 31.9792 65.5371 33.3448 62.6332L35.3572 58.3266L37.7709 59.4583C37.9117 59.5243 38.0641 59.5619 38.2194 59.569C38.3747 59.5761 38.5299 59.5525 38.6761 59.4997C38.8223 59.4468 38.9566 59.3656 39.0715 59.2608C39.1863 59.156 39.2794 59.0296 39.3454 58.8889L40.7043 55.9922L42.3072 56.7439C42.4479 56.8099 42.6003 56.8475 42.7556 56.8546C42.9109 56.8617 43.0661 56.8381 43.2123 56.7853C43.3585 56.7324 43.4929 56.6512 43.6077 56.5464C43.7225 56.4416 43.8156 56.3152 43.8816 56.1745L46.1473 51.3423C48.7938 50.9351 51.3298 49.9942 53.6014 48.5768C55.873 47.1594 57.8327 45.295 59.3616 43.0968C60.8905 40.8987 61.9567 38.4128 62.4952 35.7899C63.0338 33.1671 63.0337 30.4622 62.4947 27.8394C61.9558 25.2167 60.8893 22.7309 59.3601 20.533C57.8309 18.335 55.8709 16.4709 53.5991 15.0538C51.3273 13.6367 48.7912 12.6961 46.1447 12.2893C43.4983 11.8825 40.7967 12.0178 38.2042 12.6872C37.0934 9.78838 35.3152 7.19211 33.0136 5.10891C30.7121 3.0257 27.952 1.51419 24.9572 0.696925C21.9623 -0.120339 18.8171 -0.220352 15.7764 0.404994C12.7357 1.03034 9.88511 2.36345 7.45585 4.29622C5.0266 6.229 3.08699 8.70704 1.79431 11.5294C0.501635 14.3518 -0.107739 17.4391 0.0156013 20.541C0.138941 23.6429 0.991524 26.6721 2.50422 29.3829C4.01692 32.0938 6.14715 34.41 8.72221 36.1438V41.4767C8.72221 41.7906 8.84693 42.0917 9.06893 42.3137C9.29093 42.5357 9.59203 42.6605 9.90598 42.6605H11.6757V45.8567C11.6757 46.1706 11.8005 46.4717 12.0225 46.6937C12.2445 46.9157 12.5456 47.0404 12.8595 47.0404H15.916V48.4089C15.9165 48.5673 15.8857 48.7243 15.8254 48.8709C15.7651 49.0174 15.6766 49.1506 15.5647 49.2629C15.4529 49.3751 15.3201 49.4643 15.1737 49.5251C15.0274 49.586 14.8706 49.6174 14.7121 49.6175ZM37.7082 56.8113L27.3419 51.9519L28.1965 50.1265L33.3803 52.5568L38.5629 54.9871L37.7082 56.8113ZM23.8402 47.6962C23.9466 47.9916 24.1659 48.2326 24.4499 48.3663L26.0539 49.118L24.6949 52.0147C24.6289 52.1554 24.5913 52.3078 24.5842 52.4631C24.5771 52.6184 24.6006 52.7736 24.6535 52.9198C24.7064 53.066 24.7875 53.2004 24.8923 53.3152C24.9972 53.43 25.1235 53.5231 25.2643 53.5891L28.3824 55.0511L26.3652 59.3778C25.6227 60.956 24.4473 62.291 22.9757 63.2273C21.5042 64.1637 19.7969 64.6629 18.0527 64.6669H14.7121C13.7389 64.6669 12.8054 64.2803 12.1172 63.5921C11.429 62.9038 11.0424 61.9704 11.0424 60.9972C11.0424 60.0239 11.429 59.0905 12.1172 58.4023C12.8054 57.7141 13.7389 57.3275 14.7121 57.3275C17.0738 57.3246 19.3379 56.3852 21.0079 54.7153C22.6778 53.0453 23.6172 50.7812 23.6201 48.4195V47.0452H23.8201C23.7639 47.2608 23.7709 47.488 23.8402 47.6998V47.6962ZM50.4942 16.0633C53.9078 17.6703 56.7066 20.3431 58.469 23.6791C60.2314 27.0151 60.8618 30.8336 60.2652 34.559C59.6686 38.2845 57.8775 41.7151 55.1615 44.334C52.4456 46.9529 48.9521 48.6182 45.2074 49.0789C45.0085 49.1032 44.8189 49.1777 44.6566 49.2953C44.4943 49.4129 44.3645 49.5698 44.2793 49.7513L42.2444 54.0981L34.3853 50.413L28.1314 47.4808L27.0447 46.9718C27.2805 46.8968 27.4866 46.7491 27.6333 46.5498C27.78 46.3506 27.8599 46.11 27.8615 45.8626V42.6664H29.6313C29.9452 42.6664 30.2463 42.5417 30.4683 42.3196C30.6903 42.0976 30.8151 41.7966 30.8151 41.4826V37.9881C31.9818 40.3216 33.7876 42.2757 36.022 43.6226C38.2564 44.9695 40.8275 45.6538 43.4359 45.5958C46.0442 45.5379 48.5824 44.7401 50.7548 43.2952C52.9272 41.8504 54.6444 39.8181 55.7063 37.4351C56.7683 35.052 57.1313 32.4163 56.7531 29.8348C56.3749 27.2534 55.2711 24.8326 53.5702 22.8543C51.8692 20.876 49.6412 19.4217 47.1457 18.6608C44.6501 17.8999 41.9897 17.8637 39.4744 18.5564C39.4021 17.3378 39.2163 16.1287 38.9192 14.9447C42.7912 13.9733 46.8798 14.3684 50.4942 16.0633ZM39.4933 21.0234C41.645 20.2988 43.964 20.2335 46.153 20.8357C48.342 21.438 50.3013 22.6803 51.7796 24.4034C53.2578 26.1266 54.1877 28.252 54.45 30.5071C54.7123 32.7623 54.295 35.0444 53.2517 37.0608C52.2084 39.0772 50.5866 40.7361 48.5942 41.8246C46.6018 42.9132 44.3297 43.3818 42.0692 43.1705C39.8087 42.9591 37.6629 42.0774 35.9068 40.6384C34.1508 39.1994 32.8646 37.2686 32.2131 35.0937C34.3378 33.3831 36.0825 31.2484 37.336 28.8258C38.5895 26.4031 39.3242 23.7458 39.4933 21.0234ZM11.0898 40.2929V35.4974C11.0899 35.2953 11.0384 35.0965 10.9399 34.9199C10.8415 34.7434 10.6995 34.595 10.5275 34.4888C7.32641 32.4839 4.86461 29.4918 3.51381 25.9645C2.16301 22.4372 1.99656 18.5661 3.0396 14.9359C4.08263 11.3056 6.27852 8.11333 9.29566 5.841C12.3128 3.56868 15.9874 2.33972 19.7645 2.33972C23.5416 2.33972 27.2162 3.56868 30.2333 5.841C33.2505 8.11333 35.4463 11.3056 36.4894 14.9359C37.5324 18.5661 37.366 22.4372 36.0152 25.9645C34.6644 29.4918 32.2026 32.4839 29.0015 34.4888C28.8316 34.5953 28.6916 34.7431 28.5945 34.9185C28.4974 35.0939 28.4464 35.291 28.4463 35.4915V40.287H11.0898V40.2929ZM14.0433 44.6729V42.6605H25.4928V44.6729H14.0433ZM18.2836 48.4089V47.0452H21.2525V48.4136C21.2506 50.1477 20.5609 51.8101 19.3348 53.0363C18.1086 54.2624 16.4462 54.9521 14.7121 54.954C13.1109 54.954 11.5753 55.5901 10.4431 56.7223C9.31092 57.8545 8.67486 59.3901 8.67486 60.9913C8.67486 62.5924 9.31092 64.128 10.4431 65.2602C11.5753 66.3925 13.1109 67.0285 14.7121 67.0285H18.0527C20.2471 67.0236 22.3948 66.3956 24.2462 65.2176C26.0975 64.0396 27.5762 62.3601 28.5102 60.3745L30.5002 56.1129L33.1909 57.3701L31.1998 61.6317C30.0262 64.1286 28.1674 66.2407 25.8398 67.722C23.5122 69.2033 20.8117 69.9928 18.0527 69.9986H14.7121C12.3235 69.9986 10.0328 69.0498 8.34379 67.3608C6.6548 65.6718 5.70594 63.381 5.70594 60.9924C5.70594 58.6039 6.6548 56.3131 8.34379 54.6241C10.0328 52.9351 12.3235 51.9863 14.7121 51.9863C15.6593 51.9853 16.5673 51.6086 17.2369 50.9387C17.9065 50.2689 18.283 49.3607 18.2836 48.4136V48.4089Z" fill="#B68C5A"/>
<path d="M19.6438 36.1214H24.953V38.489H19.6438V36.1214Z" fill="#B68C5A"/>
<path d="M35.1747 48.7723L36.1667 46.6226L40.9885 48.8477L39.9965 50.9974L35.1747 48.7723Z" fill="#B68C5A"/>
</svg>
