<svg width="90" height="72" viewBox="0 0 90 72" fill="none" xmlns="http://www.w3.org/2000/svg">
<path d="M40.2425 70.9868C39.5945 70.9848 38.9706 70.7441 38.4957 70.3118L8.35876 43.3357C0.433997 36.084 -2.14262 24.8153 1.86781 14.945C5.36621 5.88481 13.2718 0.161357 22.4999 0H22.977C29.1995 0.0127741 35.2299 2.11512 40.0613 5.95675C41.677 7.20054 42.1862 9.38087 41.283 11.1887L35.5786 22.7042L41.7216 29.1202C42.2295 29.6499 42.2295 30.4756 41.7216 31.0053L37.2657 35.6618L44.3517 41.8303C44.8164 42.2358 44.9544 42.8926 44.6901 43.4446L42.2528 48.5387L46.3209 56.7753C46.6195 57.3804 46.4294 58.1085 45.8693 58.4985L41.7085 61.3969L42.8081 68.0716C42.9872 69.1258 42.4567 70.1733 41.4923 70.6715C41.1087 70.8765 40.6797 70.9848 40.2425 70.9868ZM22.977 2.75382H22.5548C14.3796 2.89164 7.63259 7.81302 4.50345 15.9158C0.898666 24.7326 3.18289 34.812 10.2566 41.3073L39.926 67.8612L38.7935 60.9888C38.7078 60.4711 38.9301 59.9507 39.3667 59.6468L43.2734 56.9286L39.4332 49.1391C39.2486 48.766 39.2459 48.331 39.4257 47.9552L41.7017 43.2019L34.3219 36.7772C34.0384 36.5305 33.8682 36.1815 33.851 35.8104C33.8339 35.4393 33.9711 35.0769 34.2306 34.806L38.7709 30.0648L32.8668 23.8989C32.4687 23.4834 32.3733 22.8703 32.6266 22.3573L38.7537 9.98932C39.0756 9.33918 38.891 8.55728 38.3097 8.11153C33.9753 4.65984 28.5626 2.76928 22.977 2.75382Z" fill="#B68C5A"/>
<path d="M49.9881 72C48.8309 72.0007 47.8179 71.2403 47.5172 70.1457L46.4348 66.2201C46.3497 65.9108 46.3772 65.5827 46.5117 65.2916L49.5187 58.8064L49.0101 48.6053C48.9957 48.2913 49.0897 47.9827 49.2771 47.7279L53.7961 41.6354L48.1734 36.7785C47.8906 36.5352 47.7197 36.1903 47.6991 35.8218C47.6778 35.4534 47.8089 35.0924 48.0622 34.8194L52.3877 30.1542L45.511 23.9749C45.2083 23.7033 45.0415 23.3147 45.0559 22.9126C45.0697 22.5106 45.2632 22.1341 45.5844 21.8833L53.7542 15.5017L50.9003 11.3158C49.6141 9.44205 50.0122 6.91413 51.8153 5.50764C56.3638 1.9625 61.9995 0.0221867 67.8124 0H68.2791C77.1812 0.155978 84.6001 5.5742 88.1239 14.4905C91.4638 22.9422 90.8694 35.132 82.0167 43.3162L51.7267 71.3243C51.2566 71.7586 50.6347 72.0007 49.9881 72ZM49.2853 65.9787L50.1289 69.0176L80.0866 41.3174C87.9908 34.0099 88.5021 23.0814 85.5027 15.4902C82.4045 7.65301 75.9465 2.89164 68.2269 2.75382H67.8048C62.6193 2.77735 57.5931 4.51126 53.5373 7.67654C52.8915 8.19355 52.7583 9.10992 53.2312 9.78292L56.8031 15.0223C57.2094 15.6173 57.0824 16.418 56.5107 16.8645L48.6147 23.0316L55.3171 29.0529C55.8875 29.5652 55.9279 30.4332 55.407 30.9946L51.1001 35.6403L56.6184 40.4017C57.1627 40.871 57.2526 41.669 56.8271 42.2438L51.8461 48.9576L52.3472 59.0088C52.3575 59.2273 52.3142 59.4451 52.2216 59.6434L49.2853 65.9787Z" fill="#B68C5A"/>
<path d="M21.8623 20.6537C19.2116 20.6523 17.0379 18.5944 16.9473 15.9992C16.8567 13.4047 18.8815 11.2056 21.526 11.0268C24.1699 10.8479 26.4836 12.7539 26.7582 15.3363C27.0389 17.9839 25.0752 20.3532 22.3723 20.6275C22.2028 20.645 22.0326 20.6537 21.8623 20.6537ZM21.8623 13.7691C21.7889 13.7691 21.7155 13.7732 21.6427 13.7819C20.4841 13.8996 19.6433 14.9154 19.7634 16.0497C19.8842 17.1845 20.9213 18.0088 22.0799 17.8905C23.2378 17.7715 24.0793 16.7556 23.9578 15.6214C23.8466 14.5692 22.942 13.7698 21.8623 13.7691Z" fill="#B68C5A"/>
<path d="M15.5368 33.0459C14.7598 33.0459 14.1311 32.4294 14.1311 31.669V23.4075C14.1311 22.8152 14.5182 22.2895 15.092 22.1026L19.309 20.7256C20.0469 20.485 20.8438 20.8762 21.0888 21.5983C21.3345 22.3211 20.935 23.1016 20.1979 23.3416L16.9425 24.4005V31.669C16.9425 32.4294 16.3131 33.0459 15.5368 33.0459Z" fill="#B68C5A"/>
<path d="M28.1879 33.0458C27.4109 33.0458 26.7822 32.4293 26.7822 31.6689V24.4005L23.5261 23.3362C22.7889 23.0955 22.3901 22.315 22.6352 21.5929C22.8802 20.8701 23.6771 20.4795 24.4149 20.7202L28.6319 22.0971C29.2078 22.2847 29.5949 22.8132 29.5935 23.4075V31.6689C29.5935 32.4293 28.9641 33.0458 28.1879 33.0458Z" fill="#B68C5A"/>
<path d="M75.9808 39.9304C75.2512 39.9338 74.641 39.3899 74.5751 38.6792L73.2518 24.4294L69.9079 23.3362C69.1707 23.0955 68.7712 22.315 69.017 21.5929C69.262 20.8701 70.0589 20.4795 70.7967 20.7202L75.0137 22.0971C75.5429 22.2692 75.9184 22.7325 75.9691 23.2771L77.3748 38.4231C77.4119 38.7875 77.2993 39.1518 77.0612 39.4349C76.823 39.7179 76.4798 39.8961 76.1071 39.9304C76.0645 39.9304 76.0213 39.9304 75.9808 39.9304Z" fill="#B68C5A"/>
<path d="M61.924 39.9304H60.5183C60.1223 39.9325 59.7434 39.7698 59.4758 39.484C59.2081 39.1983 59.0763 38.8151 59.1127 38.4285L60.5183 23.2825C60.5691 22.7379 60.9446 22.2747 61.4738 22.1026L65.6908 20.7256C66.4286 20.485 67.2255 20.8762 67.4705 21.5983C67.7156 22.3211 67.3168 23.1016 66.5796 23.3416L63.235 24.4348L62.064 37.1833C62.8094 37.2566 63.3654 37.89 63.3276 38.6228C63.2906 39.3556 62.6728 39.9304 61.924 39.9304Z" fill="#B68C5A"/>
<path d="M68.2496 20.6537C65.5988 20.6523 63.4251 18.5944 63.3345 15.9992C63.2439 13.4047 65.2687 11.2056 67.9132 11.0268C70.5571 10.8479 72.8708 12.7539 73.1454 15.3363C73.4261 17.9839 71.4624 20.3532 68.7595 20.6275C68.59 20.645 68.4198 20.6537 68.2496 20.6537ZM68.2496 13.7691C68.1761 13.7691 68.1027 13.7732 68.0299 13.7819C66.8713 13.8996 66.0305 14.9154 66.1507 16.0497C66.2715 17.1845 67.3086 18.0088 68.4671 17.8905C69.625 17.7715 70.4665 16.7556 70.345 15.6214C70.2338 14.5692 69.3292 13.7698 68.2496 13.7691Z" fill="#B68C5A"/>
<path d="M19.7537 45.438C18.9768 45.438 18.3481 44.8215 18.3481 44.0611V31.6689C18.3481 30.9085 18.9768 30.292 19.7537 30.292C20.53 30.292 21.1594 30.9085 21.1594 31.6689V44.0611C21.1594 44.8215 20.53 45.438 19.7537 45.438Z" fill="#B68C5A"/>
<path d="M23.9708 45.438C23.1939 45.438 22.5652 44.8215 22.5652 44.0611V31.6689C22.5652 30.9085 23.1939 30.292 23.9708 30.292C24.7471 30.292 25.3765 30.9085 25.3765 31.6689V44.0611C25.3765 44.8215 24.7471 45.438 23.9708 45.438Z" fill="#B68C5A"/>
<path d="M66.1411 45.4381C65.3641 45.4381 64.7354 44.8216 64.7354 44.0612V34.4228C64.7354 33.6624 65.3641 33.0459 66.1411 33.0459C66.9174 33.0459 67.5468 33.6624 67.5468 34.4228V44.0612C67.5468 44.8216 66.9174 45.4381 66.1411 45.4381Z" fill="#B68C5A"/>
<path d="M70.3581 45.4381C69.5811 45.4381 68.9524 44.8216 68.9524 44.0612V34.4228C68.9524 33.6624 69.5811 33.0459 70.3581 33.0459C71.1343 33.0459 71.7637 33.6624 71.7637 34.4228V44.0612C71.7637 44.8216 71.1343 45.4381 70.3581 45.4381Z" fill="#B68C5A"/>
<path d="M75.9808 39.9303H74.5752C73.7982 39.9303 73.1695 39.3138 73.1695 38.5534C73.1695 37.793 73.7982 37.1765 74.5752 37.1765H75.9808C76.7571 37.1765 77.3865 37.793 77.3865 38.5534C77.3865 39.3138 76.7571 39.9303 75.9808 39.9303Z" fill="#B68C5A"/>
</svg>
