<svg width="63" height="73" viewBox="0 0 63 73" fill="none" xmlns="http://www.w3.org/2000/svg">
<path d="M22.1687 65.3795C21.916 65.3795 21.6679 65.2852 21.476 65.0918C21.0921 64.705 21.0921 64.0777 21.476 63.691L23.9616 61.1866C24.7995 60.3423 25.7731 59.6867 26.8685 59.2292C27.9591 58.7717 29.1154 58.5406 30.295 58.5406H43.2098C45.1618 58.5406 47.1887 57.6068 48.6305 56.0409L60.3002 42.4905C60.7496 41.967 61.0023 41.2972 61.0023 40.6039C61.0023 39.7691 60.6419 38.972 60.0146 38.4249C58.8257 37.3826 57.0141 37.5146 55.9796 38.7126L47.4555 48.6077C47.0998 49.0228 46.4772 49.0652 46.0699 48.7068C45.6627 48.3483 45.6159 47.7211 45.9716 47.3107L54.4957 37.4156C56.2418 35.3922 59.2938 35.1705 61.3019 36.9298C62.3598 37.8542 62.9637 39.1937 62.9637 40.6039C62.9637 41.7736 62.5424 42.9055 61.7841 43.7875L50.1003 57.3521C50.0956 57.3615 50.0862 57.3662 50.0816 57.3757C48.2466 59.3754 45.7376 60.5215 43.2052 60.5215H30.2903C28.4226 60.5215 26.6672 61.2526 25.3518 62.5826L22.8662 65.0871C22.6743 65.2852 22.4215 65.3795 22.1687 65.3795Z" fill="#B68C5A"/>
<path d="M15.4375 72.1619C15.1847 72.1619 14.9366 72.0676 14.7447 71.8695L0.85614 57.8758C0.673581 57.6918 0.565918 57.4371 0.565918 57.1777C0.565918 56.9183 0.6689 56.6636 0.85614 56.4797L7.58742 49.6974C7.97126 49.3107 8.59384 49.3107 8.97768 49.6974L22.8662 63.6912C23.0488 63.8751 23.1564 64.1298 23.1564 64.3892C23.1564 64.6486 23.0534 64.9033 22.8662 65.0872L16.1349 71.8695C15.943 72.0676 15.6902 72.1619 15.4375 72.1619ZM2.93919 57.1777L15.4375 69.7707L20.7785 64.3892L8.28021 51.7962L2.93919 57.1777Z" fill="#B68C5A"/>
<path d="M43.0132 53.0366H29.3073C28.7643 53.0366 28.3242 52.5932 28.3242 52.0461C28.3242 51.499 28.7643 51.0557 29.3073 51.0557H43.0132C44.5205 51.0557 45.7469 49.8199 45.7469 48.306C45.7469 48.2211 45.7423 48.1362 45.7376 48.0607C45.7376 48.056 45.7376 48.056 45.7376 48.0513C45.6814 47.4146 45.4005 46.8156 44.9512 46.3581C44.4362 45.8393 43.7481 45.5516 43.0179 45.5516H17.3707C15.503 45.5516 13.7476 46.2826 12.4322 47.6126L8.97767 51.0934C8.59383 51.4801 7.97125 51.4801 7.58741 51.0934C7.20357 50.7066 7.20357 50.0794 7.58741 49.6926L11.042 46.2119C11.8799 45.3676 12.8535 44.712 13.9442 44.2545C15.0349 43.797 16.1864 43.5659 17.3707 43.5659H43.0085C44.2631 43.5659 45.4427 44.0564 46.3321 44.9526C47.1091 45.7355 47.5912 46.7684 47.6895 47.8673C47.7036 48.0088 47.7083 48.155 47.7083 48.3012C47.7083 50.9142 45.6018 53.0366 43.0132 53.0366Z" fill="#B68C5A"/>
<path d="M33.5249 42.2689H30.0094C29.4664 42.2689 29.0264 41.8256 29.0264 41.2785V9.93284C29.0264 9.38573 29.4664 8.94238 30.0094 8.94238C30.5524 8.94238 30.9924 9.38573 30.9924 9.93284V40.288H32.5418V9.93284C32.5418 9.38573 32.9819 8.94238 33.5249 8.94238C34.0678 8.94238 34.5079 9.38573 34.5079 9.93284V41.2785C34.5079 41.8256 34.0678 42.2689 33.5249 42.2689Z" fill="#B68C5A"/>
<path d="M39.1233 45.5563H24.4063C23.8633 45.5563 23.4233 45.113 23.4233 44.5658V41.2832C23.4233 40.7361 23.8633 40.2927 24.4063 40.2927H39.1233C39.6663 40.2927 40.1064 40.7361 40.1064 41.2832V44.5658C40.1064 45.113 39.6663 45.5563 39.1233 45.5563ZM25.3893 43.5754H38.1403V42.2736H25.3893V43.5754Z" fill="#B68C5A"/>
<path d="M31.7648 11.31C29.56 11.31 27.7672 9.50359 27.7672 7.28213C27.7672 5.06068 29.56 3.25427 31.7648 3.25427C33.9695 3.25427 35.7624 5.06068 35.7624 7.28213C35.7624 9.50359 33.9695 11.31 31.7648 11.31ZM31.7648 5.23519C30.646 5.23519 29.7332 6.1549 29.7332 7.28213C29.7332 8.40937 30.646 9.32908 31.7648 9.32908C32.8835 9.32908 33.7963 8.40937 33.7963 7.28213C33.7963 6.1549 32.8835 5.23519 31.7648 5.23519Z" fill="#B68C5A"/>
<path d="M16.3459 31.7561C12.0955 31.7561 8.63625 28.2706 8.63625 23.9881C8.63625 23.8607 8.65965 23.7334 8.70646 23.6155L15.4331 6.91449C15.5829 6.54189 15.9433 6.29663 16.3459 6.29663C16.7484 6.29663 17.1042 6.54189 17.2586 6.91449L23.9852 23.6155C24.0321 23.7334 24.0555 23.8607 24.0555 23.9881C24.0555 28.2706 20.5962 31.7561 16.3459 31.7561ZM10.6023 24.172C10.7006 27.2802 13.2377 29.7752 16.3459 29.7752C19.454 29.7752 21.9911 27.2802 22.0894 24.172L16.3459 9.91416L10.6023 24.172Z" fill="#B68C5A"/>
<path d="M23.0722 24.9737H9.61433C9.07133 24.9737 8.63132 24.5304 8.63132 23.9833C8.63132 23.4361 9.07133 22.9928 9.61433 22.9928H23.0722C23.6152 22.9928 24.0552 23.4361 24.0552 23.9833C24.0552 24.5304 23.6152 24.9737 23.0722 24.9737Z" fill="#B68C5A"/>
<path d="M47.184 31.7558C42.9337 31.7558 39.4744 28.2703 39.4744 23.9878C39.4744 23.8604 39.4978 23.7331 39.5446 23.6152L46.2759 6.90948C46.4257 6.53688 46.7861 6.29163 47.1887 6.29163C47.5913 6.29163 47.947 6.53688 48.1015 6.90948L54.8281 23.6105C54.8749 23.7284 54.8983 23.8557 54.8983 23.9831C54.8983 28.2703 51.4391 31.7558 47.184 31.7558ZM41.4404 24.1717C41.5387 27.2799 44.0759 29.7749 47.184 29.7749C50.2922 29.7749 52.8293 27.2799 52.9276 24.1717L47.184 9.91859L41.4404 24.1717Z" fill="#B68C5A"/>
<path d="M53.9153 24.9737H40.4574C39.9144 24.9737 39.4744 24.5304 39.4744 23.9833C39.4744 23.4361 39.9144 22.9928 40.4574 22.9928H53.9153C54.4583 22.9928 54.8983 23.4361 54.8983 23.9833C54.8983 24.5304 54.4583 24.9737 53.9153 24.9737Z" fill="#B68C5A"/>
<path d="M51.2518 8.27254H34.7794C34.2364 8.27254 33.7963 7.82919 33.7963 7.28208C33.7963 6.73497 34.2364 6.29163 34.7794 6.29163H51.2518C51.7948 6.29163 52.2348 6.73497 52.2348 7.28208C52.2348 7.82919 51.7948 8.27254 51.2518 8.27254Z" fill="#B68C5A"/>
<path d="M28.7502 8.27254H12.2778C11.7348 8.27254 11.2948 7.82919 11.2948 7.28208C11.2948 6.73497 11.7348 6.29163 12.2778 6.29163H28.7502C29.2932 6.29163 29.7332 6.73497 29.7332 7.28208C29.7332 7.82919 29.2932 8.27254 28.7502 8.27254Z" fill="#B68C5A"/>
<path d="M33.2346 5.62202C32.6916 5.62202 32.2516 5.17868 32.2516 4.63157V2.47143C32.2516 2.19787 32.0316 1.98091 31.7648 1.98091C31.498 1.98091 31.278 2.20259 31.278 2.47143V4.63157C31.278 5.17868 30.8379 5.62202 30.2949 5.62202C29.7519 5.62202 29.3119 5.17868 29.3119 4.63157V2.47143C29.3119 1.10837 30.412 0 31.7648 0C33.1176 0 34.2176 1.10837 34.2176 2.47143V4.63157C34.2176 5.17868 33.7776 5.62202 33.2346 5.62202Z" fill="#B68C5A"/>
</svg>
