<svg width="40" height="41" viewBox="0 0 40 41" fill="none" xmlns="http://www.w3.org/2000/svg">
<path fill-rule="evenodd" clip-rule="evenodd" d="M20 4.09277C11.025 4.09277 3.75 11.3678 3.75 20.3428C3.75 29.3178 11.025 36.5928 20 36.5928C28.975 36.5928 36.25 29.3178 36.25 20.3428C36.25 11.3678 28.975 4.09277 20 4.09277ZM27.1333 21.2261C27.3674 20.9917 27.4989 20.674 27.4989 20.3428C27.4989 20.0115 27.3674 19.6938 27.1333 19.4594L22.1333 14.4594C22.0189 14.3366 21.8809 14.2381 21.7276 14.1698C21.5742 14.1015 21.4087 14.0647 21.2409 14.0618C21.073 14.0588 20.9063 14.0897 20.7507 14.1526C20.595 14.2154 20.4536 14.309 20.3349 14.4277C20.2162 14.5464 20.1227 14.6878 20.0598 14.8434C19.9969 14.9991 19.9661 15.1658 19.969 15.3336C19.972 15.5015 20.0087 15.667 20.077 15.8203C20.1454 15.9737 20.2439 16.1117 20.3667 16.2261L23.2333 19.0928H13.75C13.4185 19.0928 13.1005 19.2245 12.8661 19.4589C12.6317 19.6933 12.5 20.0113 12.5 20.3428C12.5 20.6743 12.6317 20.9922 12.8661 21.2267C13.1005 21.4611 13.4185 21.5928 13.75 21.5928H23.2333L20.3667 24.4594C20.2439 24.5739 20.1454 24.7119 20.077 24.8652C20.0087 25.0185 19.972 25.1841 19.969 25.3519C19.9661 25.5197 19.9969 25.6865 20.0598 25.8421C20.1227 25.9977 20.2162 26.1391 20.3349 26.2578C20.4536 26.3765 20.595 26.4701 20.7507 26.533C20.9063 26.5958 21.073 26.6267 21.2409 26.6238C21.4087 26.6208 21.5742 26.5841 21.7276 26.5157C21.8809 26.4474 22.0189 26.3489 22.1333 26.2261L27.1333 21.2261Z" fill="#B68C5A"/>
</svg>
