<svg width="70" height="73" viewBox="0 0 70 73" fill="none" xmlns="http://www.w3.org/2000/svg">
<path d="M46.5477 66.1414H3.58059C2.63096 66.1414 1.72022 65.7613 1.04873 65.0848C0.37724 64.4082 0 63.4905 0 62.5337V7.21538C0 6.25856 0.37724 5.34092 1.04873 4.66434C1.72022 3.98776 2.63096 3.60767 3.58059 3.60767H46.5477C47.4973 3.60767 48.4081 3.98776 49.0796 4.66434C49.751 5.34092 50.1283 6.25856 50.1283 7.21538V62.5337C50.1283 63.4905 49.751 64.4082 49.0796 65.0848C48.4081 65.7613 47.4973 66.1414 46.5477 66.1414ZM3.58059 6.01281C3.26405 6.01281 2.96047 6.13951 2.73664 6.36504C2.51281 6.59056 2.38706 6.89644 2.38706 7.21538V62.5337C2.38706 62.8527 2.51281 63.1585 2.73664 63.3841C2.96047 63.6096 3.26405 63.7363 3.58059 63.7363H46.5477C46.8642 63.7363 47.1678 63.6096 47.3917 63.3841C47.6155 63.1585 47.7412 62.8527 47.7412 62.5337V7.21538C47.7412 6.89644 47.6155 6.59056 47.3917 6.36504C47.1678 6.13951 46.8642 6.01281 46.5477 6.01281H3.58059Z" fill="#B68C5A"/>
<path d="M52.5153 72.1543H9.54824C8.59861 72.1543 7.68787 71.7742 7.01638 71.0976C6.34489 70.4211 5.96765 69.5034 5.96765 68.5466C5.96765 68.2277 6.0934 67.9218 6.31723 67.6963C6.54106 67.4707 6.84464 67.344 7.16118 67.344C7.47773 67.344 7.78131 67.4707 8.00514 67.6963C8.22897 67.9218 8.35471 68.2277 8.35471 68.5466C8.35471 68.8655 8.48046 69.1714 8.70429 69.397C8.92812 69.6225 9.2317 69.7492 9.54824 69.7492H52.5153C52.8319 69.7492 53.1355 69.6225 53.3593 69.397C53.5831 69.1714 53.7089 68.8655 53.7089 68.5466V12.0257C53.7089 11.7067 53.5831 11.4009 53.3593 11.1753C53.1355 10.9498 52.8319 10.8231 52.5153 10.8231C52.1988 10.8231 51.8952 10.6964 51.6714 10.4709C51.4476 10.2454 51.3218 9.93948 51.3218 9.62054C51.3218 9.3016 51.4476 8.99572 51.6714 8.77019C51.8952 8.54467 52.1988 8.41797 52.5153 8.41797C53.465 8.41797 54.3757 8.79807 55.0472 9.47464C55.7187 10.1512 56.0959 11.0689 56.0959 12.0257V68.5466C56.0959 69.5034 55.7187 70.4211 55.0472 71.0976C54.3757 71.7742 53.465 72.1543 52.5153 72.1543Z" fill="#B68C5A"/>
<path d="M9.54827 9.62058C9.23172 9.62058 8.92814 9.49388 8.70431 9.26836C8.48048 9.04283 8.35474 8.73695 8.35474 8.41801V1.20257C8.35474 0.883631 8.48048 0.577751 8.70431 0.352225C8.92814 0.126699 9.23172 0 9.54827 0C9.86481 0 10.1684 0.126699 10.3922 0.352225C10.6161 0.577751 10.7418 0.883631 10.7418 1.20257V8.41801C10.7418 8.73695 10.6161 9.04283 10.3922 9.26836C10.1684 9.49388 9.86481 9.62058 9.54827 9.62058Z" fill="#B68C5A"/>
<path d="M19.0965 9.62058C18.7799 9.62058 18.4764 9.49388 18.2525 9.26836C18.0287 9.04283 17.903 8.73695 17.903 8.41801V1.20257C17.903 0.883631 18.0287 0.577751 18.2525 0.352225C18.4764 0.126699 18.7799 0 19.0965 0C19.413 0 19.7166 0.126699 19.9404 0.352225C20.1643 0.577751 20.29 0.883631 20.29 1.20257V8.41801C20.29 8.73695 20.1643 9.04283 19.9404 9.26836C19.7166 9.49388 19.413 9.62058 19.0965 9.62058Z" fill="#B68C5A"/>
<path d="M31.0318 9.62058C30.7152 9.62058 30.4117 9.49388 30.1878 9.26836C29.964 9.04283 29.8383 8.73695 29.8383 8.41801V1.20257C29.8383 0.883631 29.964 0.577751 30.1878 0.352225C30.4117 0.126699 30.7152 0 31.0318 0C31.3483 0 31.6519 0.126699 31.8757 0.352225C32.0996 0.577751 32.2253 0.883631 32.2253 1.20257V8.41801C32.2253 8.73695 32.0996 9.04283 31.8757 9.26836C31.6519 9.49388 31.3483 9.62058 31.0318 9.62058Z" fill="#B68C5A"/>
<path d="M40.5801 9.62058C40.2635 9.62058 39.9599 9.49388 39.7361 9.26836C39.5123 9.04283 39.3865 8.73695 39.3865 8.41801V1.20257C39.3865 0.883631 39.5123 0.577751 39.7361 0.352225C39.9599 0.126699 40.2635 0 40.5801 0C40.8966 0 41.2002 0.126699 41.424 0.352225C41.6479 0.577751 41.7736 0.883631 41.7736 1.20257V8.41801C41.7736 8.73695 41.6479 9.04283 41.424 9.26836C41.2002 9.49388 40.8966 9.62058 40.5801 9.62058Z" fill="#B68C5A"/>
<path d="M64.4507 60.1286H59.6766C59.36 60.1286 59.0564 60.0019 58.8326 59.7764C58.6088 59.5508 58.483 59.245 58.483 58.926V14.4308C58.483 14.1119 58.6088 13.806 58.8326 13.5805C59.0564 13.355 59.36 13.2283 59.6766 13.2283H64.4507C64.7672 13.2283 65.0708 13.355 65.2946 13.5805C65.5185 13.806 65.6442 14.1119 65.6442 14.4308V58.926C65.6442 59.245 65.5185 59.5508 65.2946 59.7764C65.0708 60.0019 64.7672 60.1286 64.4507 60.1286ZM60.8701 57.7235H63.2572V15.6334H60.8701V57.7235Z" fill="#B68C5A"/>
<path d="M64.4507 15.6335H59.6766C59.36 15.6335 59.0564 15.5068 58.8326 15.2812C58.6088 15.0557 58.483 14.7498 58.483 14.4309V8.41803C58.483 8.09908 58.6088 7.79321 58.8326 7.56768C59.0564 7.34215 59.36 7.21545 59.6766 7.21545H64.4507C64.7672 7.21545 65.0708 7.34215 65.2946 7.56768C65.5185 7.79321 65.6442 8.09908 65.6442 8.41803V14.4309C65.6442 14.7498 65.5185 15.0557 65.2946 15.2812C65.0708 15.5068 64.7672 15.6335 64.4507 15.6335ZM60.8701 13.2283H63.2572V9.6206H60.8701V13.2283Z" fill="#B68C5A"/>
<path d="M68.0312 32.4694C67.7147 32.4694 67.4111 32.3427 67.1872 32.1172C66.9634 31.8917 66.8377 31.5858 66.8377 31.2669V15.6334H64.4506C64.1341 15.6334 63.8305 15.5067 63.6067 15.2812C63.3828 15.0557 63.2571 14.7498 63.2571 14.4308C63.2571 14.1119 63.3828 13.806 63.6067 13.5805C63.8305 13.355 64.1341 13.2283 64.4506 13.2283H68.0312C68.3477 13.2283 68.6513 13.355 68.8752 13.5805C69.099 13.806 69.2247 14.1119 69.2247 14.4308V31.2669C69.2247 31.5858 69.099 31.8917 68.8752 32.1172C68.6513 32.3427 68.3477 32.4694 68.0312 32.4694Z" fill="#B68C5A"/>
<path d="M62.0636 67.3442C61.8132 67.344 61.5692 67.2644 61.3662 67.1168C61.1631 66.9692 61.0113 66.761 60.9322 66.5216L58.5451 59.3062C58.4451 59.0032 58.4686 58.6726 58.6105 58.387C58.7524 58.1015 59.0011 57.8845 59.3018 57.7837C59.6025 57.6829 59.9306 57.7066 60.214 57.8496C60.4974 57.9926 60.7128 58.2431 60.8128 58.5461L62.0636 62.3391L63.3192 58.5461C63.3687 58.3961 63.4471 58.2574 63.5499 58.1379C63.6526 58.0184 63.7777 57.9204 63.918 57.8496C64.0583 57.7788 64.2111 57.7366 64.3676 57.7253C64.5241 57.7139 64.6813 57.7338 64.8302 57.7837C64.9791 57.8336 65.1168 57.9126 65.2354 58.0161C65.354 58.1196 65.4513 58.2457 65.5215 58.387C65.5918 58.5284 65.6337 58.6823 65.6449 58.8401C65.6562 58.9978 65.6365 59.1561 65.5869 59.3062L63.1999 66.5216C63.1205 66.7618 62.9679 66.9705 62.7639 67.1182C62.5599 67.2659 62.3148 67.345 62.0636 67.3442Z" fill="#B68C5A"/>
<path d="M15.5159 26.4565C15.1993 26.4565 14.8957 26.3298 14.6719 26.1043C14.4481 25.8788 14.3223 25.5729 14.3223 25.2539V15.6334C14.3223 15.3144 14.4481 15.0085 14.6719 14.783C14.8957 14.5575 15.1993 14.4308 15.5159 14.4308C15.8324 14.4308 16.136 14.5575 16.3598 14.783C16.5836 15.0085 16.7094 15.3144 16.7094 15.6334V25.2539C16.7094 25.5729 16.5836 25.8788 16.3598 26.1043C16.136 26.3298 15.8324 26.4565 15.5159 26.4565Z" fill="#B68C5A"/>
<path d="M19.0965 16.8359H11.9353C11.6187 16.8359 11.3152 16.7092 11.0913 16.4837C10.8675 16.2582 10.7418 15.9523 10.7418 15.6334C10.7418 15.3144 10.8675 15.0085 11.0913 14.783C11.3152 14.5575 11.6187 14.4308 11.9353 14.4308H19.0965C19.413 14.4308 19.7166 14.5575 19.9404 14.783C20.1643 15.0085 20.29 15.3144 20.29 15.6334C20.29 15.9523 20.1643 16.2582 19.9404 16.4837C19.7166 16.7092 19.413 16.8359 19.0965 16.8359Z" fill="#B68C5A"/>
<path d="M20.29 26.4566C20.1467 26.4561 20.0045 26.4304 19.8699 26.3809C19.7229 26.3254 19.5883 26.2413 19.4736 26.1333C19.359 26.0254 19.2666 25.8957 19.2017 25.7517C19.1369 25.6077 19.1008 25.4523 19.0957 25.2943C19.0905 25.1362 19.1163 24.9787 19.1717 24.8308L22.7523 15.2102C22.8071 15.0622 22.8904 14.9266 22.9972 14.811C23.1041 14.6954 23.2326 14.6022 23.3752 14.5367C23.5178 14.4711 23.6719 14.4345 23.8286 14.429C23.9852 14.4234 24.1415 14.449 24.2883 14.5043C24.4352 14.5595 24.5698 14.6434 24.6845 14.7511C24.7992 14.8588 24.8917 14.9882 24.9568 15.1319C25.0218 15.2756 25.0581 15.4309 25.0637 15.5887C25.0692 15.7466 25.0438 15.904 24.9889 16.052L21.4083 25.6726C21.3236 25.9026 21.171 26.101 20.9711 26.2412C20.7712 26.3813 20.5335 26.4565 20.29 26.4566Z" fill="#B68C5A"/>
<path d="M27.4512 26.4566C27.2082 26.4568 26.971 26.3824 26.7711 26.2431C26.5713 26.1039 26.4184 25.9065 26.3329 25.6773L22.7523 16.0567C22.6415 15.7579 22.6531 15.4269 22.7845 15.1367C22.9159 14.8464 23.1563 14.6207 23.4529 14.509C23.7495 14.3974 24.078 14.4091 24.366 14.5414C24.6541 14.6738 24.8782 14.9161 24.989 15.2149L28.5696 24.8355C28.6249 24.9835 28.6507 25.141 28.6455 25.299C28.6404 25.457 28.6044 25.6125 28.5395 25.7565C28.4746 25.9004 28.3823 26.0301 28.2676 26.1381C28.153 26.246 28.0183 26.3302 27.8713 26.3856C27.7364 26.4335 27.5943 26.4576 27.4512 26.4566Z" fill="#B68C5A"/>
<path d="M38.193 26.4565C38.0077 26.4565 37.8249 26.413 37.6592 26.3296C37.4935 26.2461 37.3493 26.1248 37.2382 25.9755L30.077 16.3549C29.887 16.0998 29.8055 15.779 29.8503 15.4633C29.895 15.1476 30.0624 14.8627 30.3157 14.6713C30.5689 14.4799 30.8872 14.3978 31.2006 14.4429C31.5139 14.488 31.7967 14.6567 31.9866 14.9118L39.1478 24.5324C39.2808 24.7111 39.3618 24.9235 39.3817 25.1459C39.4016 25.3684 39.3596 25.592 39.2605 25.7918C39.1614 25.9915 39.009 26.1595 38.8205 26.2769C38.6319 26.3943 38.4146 26.4565 38.193 26.4565Z" fill="#B68C5A"/>
<path d="M31.0318 26.4565C30.8101 26.4565 30.5929 26.3943 30.4043 26.2769C30.2158 26.1595 30.0634 25.9915 29.9643 25.7917C29.8651 25.592 29.8232 25.3684 29.8431 25.1459C29.863 24.9235 29.944 24.7111 30.077 24.5324L37.2381 14.9118C37.3322 14.7855 37.45 14.679 37.5849 14.5986C37.7197 14.5181 37.869 14.4652 38.0242 14.4429C38.1793 14.4205 38.3374 14.4292 38.4892 14.4684C38.641 14.5076 38.7837 14.5765 38.9091 14.6713C39.0345 14.7661 39.1401 14.8848 39.22 15.0207C39.2998 15.1565 39.3523 15.307 39.3745 15.4633C39.3967 15.6196 39.3881 15.7788 39.3492 15.9318C39.3103 16.0848 39.2418 16.2286 39.1478 16.3549L31.9866 25.9755C31.8754 26.1248 31.7313 26.2461 31.5656 26.3296C31.3998 26.413 31.2171 26.4565 31.0318 26.4565Z" fill="#B68C5A"/>
<path d="M26.2577 24.0514H21.4836C21.167 24.0514 20.8634 23.9247 20.6396 23.6992C20.4158 23.4736 20.29 23.1678 20.29 22.8488C20.29 22.5299 20.4158 22.224 20.6396 21.9985C20.8634 21.7729 21.167 21.6462 21.4836 21.6462H26.2577C26.5742 21.6462 26.8778 21.7729 27.1016 21.9985C27.3255 22.224 27.4512 22.5299 27.4512 22.8488C27.4512 23.1678 27.3255 23.4736 27.1016 23.6992C26.8778 23.9247 26.5742 24.0514 26.2577 24.0514Z" fill="#B68C5A"/>
<path d="M27.4512 33.6721H9.54827C9.23172 33.6721 8.92814 33.5454 8.70431 33.3199C8.48048 33.0944 8.35474 32.7885 8.35474 32.4695C8.35474 32.1506 8.48048 31.8447 8.70431 31.6192C8.92814 31.3937 9.23172 31.267 9.54827 31.267H27.4512C27.7678 31.267 28.0714 31.3937 28.2952 31.6192C28.519 31.8447 28.6448 32.1506 28.6448 32.4695C28.6448 32.7885 28.519 33.0944 28.2952 33.3199C28.0714 33.5454 27.7678 33.6721 27.4512 33.6721Z" fill="#B68C5A"/>
<path d="M40.5801 39.6849H9.54827C9.23172 39.6849 8.92814 39.5582 8.70431 39.3327C8.48048 39.1072 8.35474 38.8013 8.35474 38.4824C8.35474 38.1634 8.48048 37.8575 8.70431 37.632C8.92814 37.4065 9.23172 37.2798 9.54827 37.2798H40.5801C40.8966 37.2798 41.2002 37.4065 41.424 37.632C41.6479 37.8575 41.7736 38.1634 41.7736 38.4824C41.7736 38.8013 41.6479 39.1072 41.424 39.3327C41.2002 39.5582 40.8966 39.6849 40.5801 39.6849Z" fill="#B68C5A"/>
<path d="M40.5801 45.6977H9.54827C9.23172 45.6977 8.92814 45.571 8.70431 45.3455C8.48048 45.12 8.35474 44.8141 8.35474 44.4952C8.35474 44.1762 8.48048 43.8704 8.70431 43.6448C8.92814 43.4193 9.23172 43.2926 9.54827 43.2926H40.5801C40.8966 43.2926 41.2002 43.4193 41.424 43.6448C41.6479 43.8704 41.7736 44.1762 41.7736 44.4952C41.7736 44.8141 41.6479 45.12 41.424 45.3455C41.2002 45.571 40.8966 45.6977 40.5801 45.6977Z" fill="#B68C5A"/>
<path d="M40.5801 51.7106H9.54827C9.23172 51.7106 8.92814 51.5839 8.70431 51.3583C8.48048 51.1328 8.35474 50.8269 8.35474 50.508C8.35474 50.1891 8.48048 49.8832 8.70431 49.6576C8.92814 49.4321 9.23172 49.3054 9.54827 49.3054H40.5801C40.8966 49.3054 41.2002 49.4321 41.424 49.6576C41.6479 49.8832 41.7736 50.1891 41.7736 50.508C41.7736 50.8269 41.6479 51.1328 41.424 51.3583C41.2002 51.5839 40.8966 51.7106 40.5801 51.7106Z" fill="#B68C5A"/>
<path d="M40.5801 57.7234H9.54827C9.23172 57.7234 8.92814 57.5967 8.70431 57.3712C8.48048 57.1456 8.35474 56.8398 8.35474 56.5208C8.35474 56.2019 8.48048 55.896 8.70431 55.6705C8.92814 55.4449 9.23172 55.3182 9.54827 55.3182H40.5801C40.8966 55.3182 41.2002 55.4449 41.424 55.6705C41.6479 55.896 41.7736 56.2019 41.7736 56.5208C41.7736 56.8398 41.6479 57.1456 41.424 57.3712C41.2002 57.5967 40.8966 57.7234 40.5801 57.7234Z" fill="#B68C5A"/>
</svg>
